<svg width="24" height="24" viewBox="0 0 24 24" fill="none" xmlns="http://www.w3.org/2000/svg">
<path d="M11.9881 0C11.7415 6.49195e-05 11.5005 0.0736816 11.296 0.211439C11.0914 0.349196 10.9326 0.544833 10.8398 0.77334C10.747 1.00185 10.7245 1.25284 10.775 1.49423C10.8256 1.73562 10.947 1.95644 11.1238 2.12846L19.7506 10.7561H1.25732C1.09305 10.7538 0.929955 10.7841 0.777516 10.8454C0.625077 10.9066 0.486332 10.9976 0.369346 11.1129C0.252359 11.2283 0.159463 11.3658 0.0960574 11.5173C0.0326515 11.6689 0 11.8316 0 11.9959C0 12.1602 0.0326515 12.3228 0.0960574 12.4744C0.159463 12.626 0.252359 12.7634 0.369346 12.8788C0.486332 12.9941 0.625077 13.0851 0.777516 13.1464C0.929955 13.2076 1.09305 13.238 1.25732 13.2356H19.7506L11.1238 21.8657C11.0048 21.9799 10.9098 22.1168 10.8444 22.2682C10.7789 22.4196 10.7444 22.5825 10.7427 22.7475C10.741 22.9124 10.7723 23.076 10.8346 23.2288C10.897 23.3815 10.9891 23.5202 11.1058 23.6368C11.2224 23.7535 11.3611 23.8457 11.5138 23.908C11.6665 23.9704 11.8301 24.0016 11.995 23.9999C12.16 23.9983 12.3229 23.9637 12.4743 23.8982C12.6257 23.8328 12.7625 23.7378 12.8767 23.6188L23.4671 13.025C23.5981 12.9327 23.7099 12.8159 23.7964 12.6811C23.7972 12.6803 23.7981 12.6795 23.7989 12.6787C23.8208 12.6449 23.841 12.6102 23.8594 12.5745C23.8603 12.5737 23.8611 12.5729 23.8619 12.572C23.8798 12.5365 23.8959 12.5002 23.9103 12.4631C23.9112 12.4615 23.912 12.4599 23.9128 12.4582C23.9276 12.421 23.9405 12.383 23.9515 12.3444C23.9516 12.3428 23.9516 12.3412 23.9515 12.3396C24.017 12.1124 24.0161 11.8713 23.9491 11.6446C23.9467 11.6357 23.9443 11.6269 23.9418 11.618C23.9409 11.6164 23.9401 11.6148 23.9393 11.6132C23.9273 11.5754 23.9136 11.5382 23.8981 11.5018C23.8973 11.5002 23.8965 11.4986 23.8956 11.497C23.879 11.4589 23.8604 11.4218 23.84 11.3856C23.7509 11.2238 23.6268 11.084 23.4768 10.9764L12.8767 0.375325C12.7612 0.256561 12.6231 0.162157 12.4704 0.0976928C12.3178 0.0332281 12.1538 9.62542e-06 11.9881 0Z" fill="#0B147D"/>
</svg>
